<mxfile host="app.diagrams.net" modified="2023-11-23T11:29:55.161Z" agent="Mozilla/5.0 (Windows NT 10.0; Win64; x64) AppleWebKit/537.36 (KHTML, like Gecko) Chrome/119.0.0.0 Safari/537.36" etag="aRzV3aCa8is2_2H3Fi-W" version="22.1.3" type="device">
  <diagram name="Page-1" id="52a04d89-c75d-2922-d76d-85b35f80e030">
    <mxGraphModel dx="542" dy="373" grid="1" gridSize="10" guides="1" tooltips="1" connect="1" arrows="1" fold="1" page="1" pageScale="1" pageWidth="1100" pageHeight="850" background="none" math="0" shadow="0">
      <root>
        <mxCell id="0" />
        <mxCell id="1" parent="0" />
        <mxCell id="lfW27RmsZ-xz_EIlcw0v-5" style="edgeStyle=orthogonalEdgeStyle;rounded=0;orthogonalLoop=1;jettySize=auto;html=1;entryX=0.5;entryY=0;entryDx=0;entryDy=0;" edge="1" parent="1" target="lfW27RmsZ-xz_EIlcw0v-8">
          <mxGeometry relative="1" as="geometry">
            <mxPoint x="410" y="140" as="targetPoint" />
            <mxPoint x="395" y="10" as="sourcePoint" />
            <Array as="points">
              <mxPoint x="395" y="120" />
              <mxPoint x="395" y="120" />
            </Array>
          </mxGeometry>
        </mxCell>
        <mxCell id="lfW27RmsZ-xz_EIlcw0v-7" value="ID пользователя,&lt;br&gt;название организации" style="edgeLabel;html=1;align=center;verticalAlign=middle;resizable=0;points=[];" vertex="1" connectable="0" parent="lfW27RmsZ-xz_EIlcw0v-5">
          <mxGeometry x="-0.3533" y="2" relative="1" as="geometry">
            <mxPoint x="58" y="11" as="offset" />
          </mxGeometry>
        </mxCell>
        <mxCell id="lfW27RmsZ-xz_EIlcw0v-8" value="1.1" style="swimlane;html=1;fontStyle=0;childLayout=stackLayout;horizontal=1;startSize=26;fillColor=#e0e0e0;horizontalStack=0;resizeParent=1;resizeLast=0;collapsible=1;marginBottom=0;swimlaneFillColor=#ffffff;align=center;rounded=1;shadow=0;comic=0;labelBackgroundColor=none;strokeWidth=1;fontFamily=Verdana;fontSize=12" vertex="1" parent="1">
          <mxGeometry x="310" y="150" width="170" height="80" as="geometry" />
        </mxCell>
        <mxCell id="lfW27RmsZ-xz_EIlcw0v-9" value="Получение первичных данных для заявки" style="text;html=1;strokeColor=none;fillColor=none;spacingLeft=4;spacingRight=4;whiteSpace=wrap;overflow=hidden;rotatable=0;points=[[0,0.5],[1,0.5]];portConstraint=eastwest;align=center;verticalAlign=middle;" vertex="1" parent="lfW27RmsZ-xz_EIlcw0v-8">
          <mxGeometry y="26" width="170" height="54" as="geometry" />
        </mxCell>
        <mxCell id="lfW27RmsZ-xz_EIlcw0v-10" value="База данных" style="html=1;rounded=0;shadow=0;comic=0;labelBackgroundColor=none;strokeWidth=2;fontFamily=Verdana;fontSize=12;align=center;shape=mxgraph.ios7ui.horLines;" vertex="1" parent="1">
          <mxGeometry x="10" y="165" width="135" height="50" as="geometry" />
        </mxCell>
        <mxCell id="lfW27RmsZ-xz_EIlcw0v-11" style="edgeStyle=orthogonalEdgeStyle;rounded=0;orthogonalLoop=1;jettySize=auto;html=1;exitX=0.992;exitY=0.483;exitDx=0;exitDy=0;exitPerimeter=0;" edge="1" parent="1" source="lfW27RmsZ-xz_EIlcw0v-10">
          <mxGeometry relative="1" as="geometry">
            <mxPoint x="310" y="189" as="targetPoint" />
          </mxGeometry>
        </mxCell>
        <mxCell id="lfW27RmsZ-xz_EIlcw0v-12" value="Список предметных областей,&lt;br&gt;ID организации,&lt;br&gt;список сотрудников" style="edgeLabel;html=1;align=center;verticalAlign=middle;resizable=0;points=[];" vertex="1" connectable="0" parent="lfW27RmsZ-xz_EIlcw0v-11">
          <mxGeometry x="-0.6418" relative="1" as="geometry">
            <mxPoint x="54" y="-24" as="offset" />
          </mxGeometry>
        </mxCell>
        <mxCell id="lfW27RmsZ-xz_EIlcw0v-17" value="1.2" style="swimlane;html=1;fontStyle=0;childLayout=stackLayout;horizontal=1;startSize=26;fillColor=#e0e0e0;horizontalStack=0;resizeParent=1;resizeLast=0;collapsible=1;marginBottom=0;swimlaneFillColor=#ffffff;align=center;rounded=1;shadow=0;comic=0;labelBackgroundColor=none;strokeWidth=1;fontFamily=Verdana;fontSize=12" vertex="1" parent="1">
          <mxGeometry x="660" y="150" width="160" height="80" as="geometry" />
        </mxCell>
        <mxCell id="lfW27RmsZ-xz_EIlcw0v-18" value="Ввод данных" style="text;html=1;strokeColor=none;fillColor=none;spacingLeft=4;spacingRight=4;whiteSpace=wrap;overflow=hidden;rotatable=0;points=[[0,0.5],[1,0.5]];portConstraint=eastwest;align=center;verticalAlign=middle;" vertex="1" parent="lfW27RmsZ-xz_EIlcw0v-17">
          <mxGeometry y="26" width="160" height="54" as="geometry" />
        </mxCell>
        <mxCell id="lfW27RmsZ-xz_EIlcw0v-22" style="edgeStyle=orthogonalEdgeStyle;rounded=0;orthogonalLoop=1;jettySize=auto;html=1;exitX=0.5;exitY=1;exitDx=0;exitDy=0;entryX=0.5;entryY=0;entryDx=0;entryDy=0;" edge="1" parent="1" source="lfW27RmsZ-xz_EIlcw0v-20" target="lfW27RmsZ-xz_EIlcw0v-17">
          <mxGeometry relative="1" as="geometry" />
        </mxCell>
        <mxCell id="lfW27RmsZ-xz_EIlcw0v-23" value="Данные об&lt;br&gt;исследовании" style="edgeLabel;html=1;align=center;verticalAlign=middle;resizable=0;points=[];" vertex="1" connectable="0" parent="lfW27RmsZ-xz_EIlcw0v-22">
          <mxGeometry x="-0.4227" y="-1" relative="1" as="geometry">
            <mxPoint x="41" y="10" as="offset" />
          </mxGeometry>
        </mxCell>
        <mxCell id="lfW27RmsZ-xz_EIlcw0v-20" value="Пользователь" style="whiteSpace=wrap;html=1;rounded=0;shadow=0;comic=0;labelBackgroundColor=none;strokeWidth=1;fontFamily=Verdana;fontSize=12;align=center;" vertex="1" parent="1">
          <mxGeometry x="680" y="30" width="120" height="50" as="geometry" />
        </mxCell>
        <mxCell id="lfW27RmsZ-xz_EIlcw0v-21" value="" style="edgeStyle=orthogonalEdgeStyle;rounded=0;orthogonalLoop=1;jettySize=auto;html=1;exitX=1.012;exitY=0.627;exitDx=0;exitDy=0;entryX=0;entryY=0.75;entryDx=0;entryDy=0;exitPerimeter=0;" edge="1" parent="1" source="lfW27RmsZ-xz_EIlcw0v-9" target="lfW27RmsZ-xz_EIlcw0v-17">
          <mxGeometry relative="1" as="geometry" />
        </mxCell>
        <mxCell id="lfW27RmsZ-xz_EIlcw0v-29" value="Список предметных областей,&lt;br style=&quot;border-color: var(--border-color);&quot;&gt;ID организации,&lt;br style=&quot;border-color: var(--border-color);&quot;&gt;список сотрудников" style="edgeLabel;html=1;align=center;verticalAlign=middle;resizable=0;points=[];" vertex="1" connectable="0" parent="lfW27RmsZ-xz_EIlcw0v-21">
          <mxGeometry x="-0.1489" relative="1" as="geometry">
            <mxPoint x="13" y="-30" as="offset" />
          </mxGeometry>
        </mxCell>
        <mxCell id="lfW27RmsZ-xz_EIlcw0v-25" style="edgeStyle=orthogonalEdgeStyle;rounded=0;orthogonalLoop=1;jettySize=auto;html=1;exitX=0.002;exitY=0.788;exitDx=0;exitDy=0;exitPerimeter=0;entryX=0.997;entryY=0.802;entryDx=0;entryDy=0;entryPerimeter=0;" edge="1" parent="1" source="lfW27RmsZ-xz_EIlcw0v-9" target="lfW27RmsZ-xz_EIlcw0v-10">
          <mxGeometry relative="1" as="geometry">
            <mxPoint x="280" y="285" as="targetPoint" />
            <mxPoint x="280" y="215" as="sourcePoint" />
            <Array as="points">
              <mxPoint x="280" y="219" />
              <mxPoint x="280" y="205" />
            </Array>
          </mxGeometry>
        </mxCell>
        <mxCell id="lfW27RmsZ-xz_EIlcw0v-26" value="ID пользователя,&lt;br&gt;название организации" style="edgeLabel;html=1;align=center;verticalAlign=middle;resizable=0;points=[];" vertex="1" connectable="0" parent="lfW27RmsZ-xz_EIlcw0v-25">
          <mxGeometry x="-0.3533" y="2" relative="1" as="geometry">
            <mxPoint x="-46" y="23" as="offset" />
          </mxGeometry>
        </mxCell>
        <mxCell id="lfW27RmsZ-xz_EIlcw0v-42" style="edgeStyle=orthogonalEdgeStyle;rounded=0;orthogonalLoop=1;jettySize=auto;html=1;exitX=0.5;exitY=0;exitDx=0;exitDy=0;entryX=1;entryY=0.5;entryDx=0;entryDy=0;" edge="1" parent="1" source="lfW27RmsZ-xz_EIlcw0v-34" target="lfW27RmsZ-xz_EIlcw0v-20">
          <mxGeometry relative="1" as="geometry" />
        </mxCell>
        <mxCell id="lfW27RmsZ-xz_EIlcw0v-43" value="Сообщения об ошибках" style="edgeLabel;html=1;align=center;verticalAlign=middle;resizable=0;points=[];" vertex="1" connectable="0" parent="lfW27RmsZ-xz_EIlcw0v-42">
          <mxGeometry x="-0.146" y="-2" relative="1" as="geometry">
            <mxPoint x="-40" y="-13" as="offset" />
          </mxGeometry>
        </mxCell>
        <mxCell id="lfW27RmsZ-xz_EIlcw0v-34" value="1.3" style="swimlane;html=1;fontStyle=0;childLayout=stackLayout;horizontal=1;startSize=26;fillColor=#e0e0e0;horizontalStack=0;resizeParent=1;resizeLast=0;collapsible=1;marginBottom=0;swimlaneFillColor=#ffffff;align=center;rounded=1;shadow=0;comic=0;labelBackgroundColor=none;strokeWidth=1;fontFamily=Verdana;fontSize=12" vertex="1" parent="1">
          <mxGeometry x="910" y="150" width="150" height="80" as="geometry" />
        </mxCell>
        <mxCell id="lfW27RmsZ-xz_EIlcw0v-35" value="Проверка данных" style="text;html=1;strokeColor=none;fillColor=none;spacingLeft=4;spacingRight=4;whiteSpace=wrap;overflow=hidden;rotatable=0;points=[[0,0.5],[1,0.5]];portConstraint=eastwest;align=center;verticalAlign=middle;" vertex="1" parent="lfW27RmsZ-xz_EIlcw0v-34">
          <mxGeometry y="26" width="150" height="54" as="geometry" />
        </mxCell>
        <mxCell id="lfW27RmsZ-xz_EIlcw0v-36" style="edgeStyle=orthogonalEdgeStyle;rounded=0;orthogonalLoop=1;jettySize=auto;html=1;exitX=1;exitY=0.5;exitDx=0;exitDy=0;entryX=0;entryY=0.5;entryDx=0;entryDy=0;" edge="1" parent="1" source="lfW27RmsZ-xz_EIlcw0v-18" target="lfW27RmsZ-xz_EIlcw0v-35">
          <mxGeometry relative="1" as="geometry" />
        </mxCell>
        <mxCell id="lfW27RmsZ-xz_EIlcw0v-37" value="Введенные&lt;br&gt;данные" style="edgeLabel;html=1;align=center;verticalAlign=middle;resizable=0;points=[];" vertex="1" connectable="0" parent="lfW27RmsZ-xz_EIlcw0v-36">
          <mxGeometry x="-0.0252" y="-3" relative="1" as="geometry">
            <mxPoint y="-19" as="offset" />
          </mxGeometry>
        </mxCell>
        <mxCell id="lfW27RmsZ-xz_EIlcw0v-39" value="База данных" style="html=1;rounded=0;shadow=0;comic=0;labelBackgroundColor=none;strokeWidth=2;fontFamily=Verdana;fontSize=12;align=center;shape=mxgraph.ios7ui.horLines;" vertex="1" parent="1">
          <mxGeometry x="1184" y="177.99999999999997" width="135" height="50" as="geometry" />
        </mxCell>
        <mxCell id="lfW27RmsZ-xz_EIlcw0v-38" style="edgeStyle=orthogonalEdgeStyle;rounded=0;orthogonalLoop=1;jettySize=auto;html=1;exitX=1;exitY=0.5;exitDx=0;exitDy=0;" edge="1" parent="1" source="lfW27RmsZ-xz_EIlcw0v-35" target="lfW27RmsZ-xz_EIlcw0v-39">
          <mxGeometry relative="1" as="geometry">
            <mxPoint x="1140" y="203.39999999999998" as="targetPoint" />
          </mxGeometry>
        </mxCell>
        <mxCell id="lfW27RmsZ-xz_EIlcw0v-41" value="Верифицированные&lt;br&gt;данные" style="edgeLabel;html=1;align=center;verticalAlign=middle;resizable=0;points=[];" vertex="1" connectable="0" parent="lfW27RmsZ-xz_EIlcw0v-38">
          <mxGeometry x="-0.2033" y="-2" relative="1" as="geometry">
            <mxPoint x="10" y="-27" as="offset" />
          </mxGeometry>
        </mxCell>
      </root>
    </mxGraphModel>
  </diagram>
</mxfile>
